<svg width="81" height="24" viewBox="0 0 81 24" fill="none" xmlns="http://www.w3.org/2000/svg">
<path d="M4.428 9.192C1.896 9.192 0.288 7.296 0.288 4.728C0.288 2.16 1.896 0.252 4.428 0.252C6.96 0.252 8.556 2.16 8.556 4.728C8.556 7.296 6.96 9.192 4.428 9.192ZM4.44 7.764C6.012 7.764 6.78 6.432 6.78 4.728C6.78 3.012 6.012 1.68 4.44 1.68C2.868 1.68 2.064 3.012 2.064 4.728C2.064 6.432 2.868 7.764 4.44 7.764ZM9.01566 3.972V2.844H9.85566V2.34C9.85566 0.84 11.0197 0.312 12.5317 0.48V1.74C11.8237 1.704 11.4877 1.8 11.4877 2.436V2.844H13.3237V2.292C13.3237 0.792 14.4877 0.263999 16.0597 0.431999V1.692C15.2917 1.656 14.9557 1.752 14.9557 2.388V2.844H16.0597V3.972H14.9557V9H13.3237V3.972H11.4877V9H9.85566V3.972H9.01566ZM16.7917 9V2.844H18.4237V9H16.7917ZM16.7917 1.884V0.42H18.4237V1.884H16.7917ZM22.3332 9.18C20.3892 9.18 19.1772 7.764 19.1772 5.928C19.1772 4.092 20.3772 2.676 22.2492 2.676C23.8452 2.676 24.8292 3.6 25.0452 4.932H23.4492C23.3412 4.392 22.9212 3.984 22.3212 3.984C21.3372 3.984 20.8332 4.74 20.8332 5.928C20.8332 7.092 21.3012 7.872 22.2972 7.872C22.9572 7.872 23.4252 7.524 23.5332 6.828H25.1052C24.9972 8.136 23.9772 9.18 22.3332 9.18ZM28.7091 9.18C26.6691 9.18 25.5171 7.752 25.5171 5.916C25.5171 4.092 26.7531 2.676 28.5531 2.676C30.5331 2.676 31.5891 4.188 31.5891 6.384H27.1251C27.2451 7.332 27.7731 7.92 28.6971 7.92C29.3331 7.92 29.7051 7.632 29.8851 7.164H31.4931C31.2651 8.256 30.2931 9.18 28.7091 9.18ZM28.5771 3.936C27.7131 3.936 27.2931 4.452 27.1491 5.256H29.8851C29.8371 4.476 29.3211 3.936 28.5771 3.936ZM37.276 9.18C35.368 9.18 34.06 7.764 34.06 5.928C34.06 4.092 35.368 2.676 37.276 2.676C39.184 2.676 40.492 4.092 40.492 5.928C40.492 7.764 39.184 9.18 37.276 9.18ZM37.276 7.932C38.272 7.932 38.836 7.128 38.836 5.928C38.836 4.728 38.272 3.912 37.276 3.912C36.268 3.912 35.716 4.728 35.716 5.928C35.716 7.128 36.268 7.932 37.276 7.932ZM40.7735 3.972V2.844H41.6135V2.292C41.6135 0.792 42.7775 0.263999 44.3495 0.431999V1.692C43.5815 1.656 43.2455 1.752 43.2455 2.388V2.844H44.3495V3.972H43.2455V9H41.6135V3.972H40.7735ZM0.66 23V14.42H2.424L5.28 19.208C5.556 19.676 5.88 20.408 5.88 20.408H5.904C5.904 20.408 5.856 19.52 5.856 18.92V14.42H7.572V23H5.892L2.964 18.26C2.688 17.804 2.352 17.072 2.352 17.072H2.328C2.328 17.072 2.376 17.972 2.376 18.572V23H0.66ZM12.6306 23C12.5346 22.88 12.4746 22.592 12.4386 22.316H12.4146C12.1026 22.784 11.6586 23.144 10.6026 23.144C9.34256 23.144 8.45456 22.484 8.45456 21.26C8.45456 19.904 9.55856 19.472 10.9266 19.28C11.9466 19.136 12.4146 19.052 12.4146 18.584C12.4146 18.14 12.0666 17.852 11.3826 17.852C10.6146 17.852 10.2426 18.128 10.1946 18.716H8.74256C8.79056 17.636 9.59456 16.688 11.3946 16.688C13.2426 16.688 13.9866 17.516 13.9866 18.956V22.088C13.9866 22.556 14.0586 22.832 14.2026 22.94V23H12.6306ZM10.9986 22.004C11.9346 22.004 12.4506 21.428 12.4506 20.828V19.904C12.1626 20.072 11.7186 20.168 11.3106 20.264C10.4586 20.456 10.0386 20.648 10.0386 21.224C10.0386 21.8 10.4226 22.004 10.9986 22.004ZM16.5975 23L14.4615 16.844H16.1175L17.1015 20.036C17.2815 20.624 17.3775 21.02 17.3775 21.02H17.4015C17.4015 21.02 17.4855 20.624 17.6655 20.036L18.6735 16.844H20.3055L18.1575 23H16.5975ZM24.5603 23C24.4643 22.88 24.4043 22.592 24.3683 22.316H24.3443C24.0323 22.784 23.5883 23.144 22.5323 23.144C21.2723 23.144 20.3843 22.484 20.3843 21.26C20.3843 19.904 21.4883 19.472 22.8563 19.28C23.8763 19.136 24.3443 19.052 24.3443 18.584C24.3443 18.14 23.9963 17.852 23.3123 17.852C22.5443 17.852 22.1723 18.128 22.1243 18.716H20.6723C20.7203 17.636 21.5243 16.688 23.3242 16.688C25.1723 16.688 25.9163 17.516 25.9163 18.956V22.088C25.9163 22.556 25.9883 22.832 26.1323 22.94V23H24.5603ZM22.9283 22.004C23.8643 22.004 24.3803 21.428 24.3803 20.828V19.904C24.0923 20.072 23.6483 20.168 23.2402 20.264C22.3883 20.456 21.9683 20.648 21.9683 21.224C21.9683 21.8 22.3523 22.004 22.9283 22.004ZM26.9778 23V14.42H28.6098V23H26.9778ZM31.8319 23V14.42H35.7679C37.4239 14.42 38.5279 15.38 38.5279 16.808C38.5279 17.816 38.0599 18.584 36.9559 18.884V18.92C37.7479 19.148 38.1559 19.604 38.2639 20.648C38.3839 21.86 38.3359 22.784 38.6359 22.916V23H36.9679C36.7519 22.904 36.7279 21.944 36.6559 21.02C36.5839 20.084 36.0559 19.556 34.9759 19.556H33.5719V23H31.8319ZM33.5719 15.824V18.212H35.4199C36.3679 18.212 36.8359 17.72 36.8359 17.036C36.8359 16.34 36.3919 15.824 35.4679 15.824H33.5719ZM42.3497 23.18C40.3097 23.18 39.1577 21.752 39.1577 19.916C39.1577 18.092 40.3937 16.676 42.1937 16.676C44.1737 16.676 45.2297 18.188 45.2297 20.384H40.7657C40.8857 21.332 41.4137 21.92 42.3377 21.92C42.9737 21.92 43.3457 21.632 43.5257 21.164H45.1337C44.9057 22.256 43.9337 23.18 42.3497 23.18ZM42.2177 17.936C41.3537 17.936 40.9337 18.452 40.7897 19.256H43.5257C43.4777 18.476 42.9617 17.936 42.2177 17.936ZM48.481 23.18C46.693 23.18 45.697 22.316 45.601 21.008H47.113C47.221 21.716 47.725 22.028 48.457 22.028C49.177 22.028 49.585 21.752 49.585 21.32C49.585 20.732 48.805 20.672 47.965 20.504C46.861 20.288 45.781 19.988 45.781 18.644C45.781 17.312 46.885 16.676 48.289 16.676C49.909 16.676 50.809 17.48 50.929 18.716H49.453C49.381 18.056 48.961 17.816 48.265 17.816C47.629 17.816 47.209 18.056 47.209 18.5C47.209 19.028 48.025 19.076 48.901 19.256C49.933 19.472 51.073 19.76 51.073 21.2C51.073 22.436 50.017 23.18 48.481 23.18ZM54.7598 23.18C52.7198 23.18 51.5678 21.752 51.5678 19.916C51.5678 18.092 52.8038 16.676 54.6038 16.676C56.5838 16.676 57.6398 18.188 57.6398 20.384H53.1758C53.2958 21.332 53.8238 21.92 54.7478 21.92C55.3838 21.92 55.7558 21.632 55.9358 21.164H57.5438C57.3158 22.256 56.3438 23.18 54.7598 23.18ZM54.6278 17.936C53.7638 17.936 53.3438 18.452 53.1998 19.256H55.9358C55.8878 18.476 55.3718 17.936 54.6278 17.936ZM62.2712 23C62.1752 22.88 62.1152 22.592 62.0792 22.316H62.0552C61.7432 22.784 61.2992 23.144 60.2432 23.144C58.9832 23.144 58.0952 22.484 58.0952 21.26C58.0952 19.904 59.1992 19.472 60.5672 19.28C61.5872 19.136 62.0552 19.052 62.0552 18.584C62.0552 18.14 61.7072 17.852 61.0232 17.852C60.2552 17.852 59.8832 18.128 59.8352 18.716H58.3832C58.4312 17.636 59.2352 16.688 61.0352 16.688C62.8832 16.688 63.6272 17.516 63.6272 18.956V22.088C63.6272 22.556 63.6992 22.832 63.8432 22.94V23H62.2712ZM60.6392 22.004C61.5752 22.004 62.0912 21.428 62.0912 20.828V19.904C61.8032 20.072 61.3592 20.168 60.9512 20.264C60.0992 20.456 59.6792 20.648 59.6792 21.224C59.6792 21.8 60.0632 22.004 60.6392 22.004ZM66.2367 16.844V17.828H66.2727C66.6447 17.132 67.0647 16.772 67.7847 16.772C67.9647 16.772 68.0727 16.784 68.1687 16.82V18.248H68.1327C67.0647 18.14 66.2967 18.704 66.2967 20V23H64.6647V16.844H66.2367ZM71.552 23.18C69.608 23.18 68.396 21.764 68.396 19.928C68.396 18.092 69.596 16.676 71.468 16.676C73.064 16.676 74.048 17.6 74.264 18.932H72.668C72.56 18.392 72.14 17.984 71.54 17.984C70.556 17.984 70.052 18.74 70.052 19.928C70.052 21.092 70.52 21.872 71.516 21.872C72.176 21.872 72.644 21.524 72.752 20.828H74.324C74.216 22.136 73.196 23.18 71.552 23.18ZM76.6678 14.42V17.648H76.7038C77.1478 17 77.6518 16.676 78.4918 16.676C79.7638 16.676 80.6158 17.636 80.6158 18.98V23H78.9838V19.22C78.9838 18.56 78.5998 18.092 77.9158 18.092C77.1958 18.092 76.6678 18.668 76.6678 19.508V23H75.0358V14.42H76.6678Z" fill="#212529"/>
</svg>
