<?xml version="1.0" encoding="UTF-8"?>
<svg id="Layer_2" data-name="Layer 2" xmlns="http://www.w3.org/2000/svg" viewBox="0 0 4168.8 427.44">
  <defs>
    <style>
      .cls-1 {
        fill: #c9d1de;
        stroke-width: 0px;
      }
    </style>
  </defs>
  <g id="Layer_1-2" data-name="Layer 1">
    <g>
      <polygon class="cls-1" points="1529.88 281.58 1529.88 281.58 1529.88 281.58 1529.88 281.58"/>
      <path class="cls-1" d="m2107.82,291.07c-.51-9.25-2.23-17.88-2.23-17.88,0,0,11.62-1.98,13.32-5.1,7.32-13.46-28-43.33-43.32-43.33h.01c-15.32.01-50.65,29.88-43.33,43.34,1.7,3.11,13.44,3.89,13.44,3.89,0,0-.04.17-.1.46-14.18,5.02-29.08,4.95-44.57-.25,3.46-.88,7.78-2.3,8.76-4.11,7.32-13.46-28-43.33-43.32-43.33h0c-15.32.01-50.64,29.88-43.32,43.34,1.7,3.11,13.44,3.89,13.44,3.89,0,0-2.03,9.34-2.65,19.08h-41.41v-18.46l23.43-19.88-23.79-6.26-32.11,27.4,20.65,8.78,8.5-7.22v15.64h-87.17c-4.82-13.94-27.78-35.77-39.52-42.41-13.09-7.4-20.29-2.19-32.6,2.72v-22.69l23.43-19.89-23.8-6.25-32.1,27.39,20.65,8.78,8.5-7.22v21.07c-15.8,4.9-26.6-2.77-41.3-10.19-3.32-1.68-6.44-3.06-9.42-4.17v-30.05h10.43s-20.57-31.82-31.82-31.82-31.82,31.82-31.82,31.82h10.43v31.22c-1.7.57-3.45,1.18-5.26,1.84-29.18,10.54-58.73,23.07-87.68,35.83.37-.18.74-.36,1.1-.51-6.44-4.58.1-38.39,5.87-56.74.73,1.39,2.17,2.34,3.85,2.34,2.4,0,4.36-1.95,4.36-4.36,0-.35-.06-.69-.14-1.02.05,0,.1.01.15.01,1.36,0,2.57-.64,3.37-1.63,4.57,4.28,7.48,10.16,11.1,15.69-.65-3.22-.21-6.65-.83-9.87,3.5,4.65,7.01,9.3,10.51,13.95-.84-3.47-.39-7.26-1.19-10.73,3.53,3.84,7.07,7.67,10.6,11.5-1.02-3.08-.76-6.57-1.67-9.68,2.71,2.11,8.85,8.65,12.25,8.79-7.35-16.5-23.53-24.9-40.64-24.95-.51-.7-1.23-1.23-2.06-1.53,7.2-1.45,14.45.83,21.98,2.08-2.8-1.7-5.03-4.34-7.81-6.08,5.79.58,11.58,1.16,17.37,1.74-3.11-1.73-5.58-4.63-8.68-6.4h15.64c-2.95-1.33-5.36-3.9-8.26-5.33,3.39-.57,12.37-.64,14.78-3.04-18.94-6.4-37.9,1.86-49.41,17.14-.01-.04-.02-.08-.04-.12.1-.08.19-.18.29-.26-.1,0-.22.05-.33.11-.11-.24-.24-.48-.38-.7,2.95-19.03-4.46-38.49-22.39-47.55-.03,3.41,6.21,9.85,8.19,12.66-3.06-1.06-6.58-.97-9.6-2.14,3.66,3.71,7.32,7.43,10.97,11.15-3.43-.97-7.23-.7-10.65-1.71,4.48,3.72,8.95,7.44,13.43,11.17-3.19-.77-6.64-.5-9.82-1.31,6.8,4.94,14.24,8.77,18.03,16.15-.55-.25-1.16-.4-1.81-.4-.2,0-.38.03-.57.06-13.11-12.29-31.72-17.25-48.82-9.21,2.67,2.12,11.59,1.17,15.03,1.34-2.72,1.76-4.82,4.58-7.6,6.23,5.18-.58,10.36-1.18,15.54-1.77-2.89,2.11-5,5.26-7.91,7.35,5.69-1.24,11.38-2.47,17.07-3.7-2.57,2.04-4.49,4.92-7.08,6.93,6.93-1.98,13.5-4.84,20.36-4.64-.24.54-.38,1.14-.38,1.77,0,1.96,1.3,3.59,3.07,4.15-13.9,17.62-16.22,46.81-17.13,67.6.05-.02.11-.03.16-.05-7.17,3.19-14.29,6.38-21.36,9.54h-53.56l-18.49-22.42v-13.01h13.81l-42.14-42.13-18.43,18.43-.63-2.28,8.35-8.36-2.35-2.35-24.07,24.09,2.34,2.34,13.03-13.03.64,2.28-21.02,21.01h13.81v10.02c-6.39,2.18-12.46,2.37-18.12.54-6.31-2.04-11.25-6.31-14.86-10.56h8.8l-42.14-42.13-35.06,35.05c-3.42.12-6.72-.28-9.89-1.21-8.25-2.41-14.05-8-17.57-12.48v-14.64h-60.43v70.84h0v-93.73h-58.42v20.18c-6.78-6.26-10.88-17.65-13.01-25.4v-61.34h-10.42v-30.25h-27.21v-37.65h-3.31v37.65h-27.2v30.25h-10.43v55.99c-1.53.31-3.04.39-4.51.2-2.8-.35-5.14-1.58-6.98-2.98v-18.38h-50.35v16.62c-4.5,1.83-8.79,2.13-12.79.87-7.7-2.41-12.66-9.95-14.76-13.79h.61l-15.55-21.11h-22.59v-13.12l-25.07-23.06-25.07,23.06v13.12h-26.38l-14.45,21.11h40.83v41.17l-25.66,80.59h-48.44v-18.54l23.43-19.88-23.79-6.25-32.1,27.39,20.64,8.77,8.51-7.21v15.72h-51.92v-18.53l23.43-19.89-23.79-6.25-32.1,27.39,20.65,8.77,8.49-7.21v15.72h-76.76l-6.77-150.47h.18c6.72,8.52,12.56,18.13,18.75,26.89,5.81,8.22,11.62,16.42,17.43,24.64,3.22,4.54,5.41,7.96,9.93,11.15-1.12-5.18-3.41-8.6-6.16-13.18v.02c-5.07-8.46-10.14-16.93-15.2-25.4-4.27-7.14-8.38-14.4-12.83-21.43-1.08-1.72-1.28-2.13-2.85-3.16-1.71-1.12-2.97-1.7-4.09-2.34v-14.03h-3.73c3.09-10.48,7.65-20.86,11.26-31.05,3.36-9.48,6.72-18.97,10.08-28.45,1.86-5.25,3.39-9.01,3.39-14.54-3.59,3.9-5.05,7.75-7.23,12.63-3.99,9.02-7.99,18.04-11.98,27.06-3.37,7.6-6.93,15.16-10.12,22.83-.78,1.88-.99,2.28-.93,4.16.11,3.44.73,4.94.42,7.36h-8v7.15c-11.03,2.59-22.81,3.67-33.89,5.53-1.41.24-2.82.48-4.23.71-.81-1.35-1.62-2.7-2.43-4.06-4.94-8.25-9.7-16.66-14.84-24.8-1.25-1.99-1.49-2.46-3.3-3.66-1.98-1.3-3.44-1.97-4.73-2.7v-16.24h-4.32c3.57-12.13,8.86-24.14,13.03-35.93,3.89-10.98,7.78-21.96,11.66-32.93,2.15-6.07,3.92-10.42,3.92-16.83-4.16,4.51-5.86,8.97-8.36,14.62-4.63,10.44-9.25,20.88-13.88,31.32-3.9,8.8-8.02,17.54-11.71,26.43-.9,2.18-1.15,2.64-1.08,4.81.17,5.03,1.29,6.46-.03,11.02.27-.96.43-1.78.53-2.52h-9.26v8.28c1.36-.32,2.72-.65,4.07-1.01h.01c-13.91,3.78-29.11,5.04-43.31,7.43-7.99,1.34-15.98,2.69-23.97,4.03.51-1.38,1.02-2.76,1.51-4.13,3.35-9.49,6.71-18.97,10.08-28.45,1.85-5.25,3.39-9.01,3.39-14.54-3.6,3.9-5.06,7.75-7.23,12.63-4,9.02-7.99,18.04-11.99,27.06-1.3,2.94-2.63,5.87-3.96,8.81-.76.13-1.52.26-2.28.38-6.35,1.07-11.02,1.64-16.61,4.74,5.85,1.42,10.5.79,16.48.25-1.28,2.87-2.54,5.75-3.74,8.65-.78,1.88-1,2.28-.94,4.16.14,4.05.98,5.39.17,8.75.11-.5.19-.96.25-1.39h-8v7.15c-11.03,2.59-22.8,3.67-33.89,5.53-9.92,1.67-19.85,3.34-29.77,5.01-5.49.92-9.52,1.41-14.35,4.09,5.15,1.26,9.22.67,14.55.19,9.82-.89,19.65-1.78,29.48-2.66,8.28-.75,16.61-1.31,24.87-2.25,2.01-.23,2.48-.23,4.09-1.2,3.98-2.4,4.41-3.88,9.22-4.78v.02c-1.94.36-3.17.82-4.2,1.39v4.35h4.27l1.08,142.9h-60.94v-50.46h-.01v-7.13h-74.54v7.13h-41.28v-35.98h-14.78v35.98h-6.26v-78.56h-14.78v78.56h-3.64v-51.75h-14.77v51.75h-7.89v50.46h-33.26c-24.9-20.45-30.85-125.46-22.81-125.46h-75.1c8.04,0,2.09,105.01-22.81,125.46H0v136.37h4168.8v-136.37h-2060.98Zm-556.75-77.9c.02.09.04.18.06.26-.05,0-.09-.01-.14-.01-.09,0-.17.02-.25.02.12-.08.22-.18.33-.27Zm-902.87-87.02c-.22.8-.42,1.6-.62,2.4h0c.2-.8.4-1.6.63-2.4Zm-174.14,8.21s.09.07.13.1c0,0-.01,0-.02.01-.04-.03-.08-.06-.12-.09t.01-.02Zm10.83,156.71l-6.43-142.9h.19c-.07-.08-.14-.17-.2-.25h0c-1.02-1.29-2.04-2.55-3.1-3.76h0c-.15,0-.3.04-.46.04-1.58,0-2.97-.76-3.87-1.92,0-.02.01-.03.01-.04.89,1.17,2.29,1.94,3.88,1.94.16,0,.3-.04.45-.05,8.16,9.42,14.85,20.77,22.04,30.93,5.81,8.22,11.62,16.42,17.44,24.64,3.21,4.54,5.4,7.96,9.92,11.15-1.11-5.18-3.41-8.6-6.15-13.18v.02c-5.08-8.46-10.14-16.93-15.21-25.4-4.27-7.14-8.38-14.4-12.82-21.43-1.09-1.72-1.29-2.13-2.85-3.16-1.72-1.13-2.97-1.7-4.09-2.34v-14.03h-3.73c-.24.8-.46,1.6-.68,2.4.95-3.52,2.09-7.03,3.33-10.53,1.51-4.29,3.17-8.55,4.81-12.8,8.72-.78,17.44-1.56,26.16-2.35,9.58-.86,19.22-1.5,28.78-2.6,2.34-.26,2.87-.27,4.73-1.38,2.76-1.66,4.05-2.94,5.82-3.92v5.04h4.94l.31,40.17c-.12.06-.23.12-.35.19.12.02.23.04.35.07l1.11,145.45h-74.32Zm-5.66-149.56c.09-.16.16-.34.23-.51.12-.32.21-.66.26-1.01-.04.35-.13.69-.26,1.01-.06.18-.14.35-.22.51h-.01Zm163.82-14.72s.09.07.13.1c-.01,0-.02.01-.02.01-.04-.03-.08-.06-.12-.09t.01-.02Zm-75.32-30.54c-.11.43-.27.84-.46,1.22h-.01c.2-.38.36-.79.47-1.22Zm-1.37,8.64l.02.29h.2c7.77,9.86,14.51,21.02,21.68,31.15.51.72,1.01,1.43,1.52,2.15-5.89.99-11.78,1.98-17.68,2.97-1.44.24-2.78.45-4.06.69l-1.68-37.25Zm8.38,186.18l-6.53-144.97c1.31-.11,2.65-.24,4.09-.37,7.08-.64,14.17-1.28,21.25-1.92,4.97,7.01,9.93,14.03,14.89,21.04,3.72,5.26,6.25,9.21,11.48,12.9-1.28-6-3.94-9.95-7.12-15.26h.01c-3.86-6.46-7.73-12.91-11.59-19.37.19-.02.38-.04.56-.05,8.29-.75,16.62-1.31,24.88-2.25,2.01-.23,2.48-.23,4.08-1.2,3.99-2.4,4.41-3.88,9.23-4.78-.01,0-.01.01-.01.02-1.94.36-3.16.82-4.19,1.39v4.35h4.27l1.15,150.47h-66.45Zm69.6-154.48s-.01,0-.01-.01c-.15.02-.3.05-.45.05-1.59,0-2.98-.77-3.88-1.93v-.03c.9,1.17,2.29,1.94,3.88,1.94.16,0,.31-.03.46-.05.24.27.47.55.7.84-.24-.27-.47-.54-.7-.81Zm269.43,14.92h20.91l10.67,14.49h-31.58v-14.49Zm-25.08,35.8l-19.21-18h38.43l-19.22,18Zm21.76-15.83v36.2l-19.33-18.1,19.33-18.1Zm-1.52,39.32l-20.61,21.59-.07-.07v.02s-19.7-21.63-19.7-21.63l20.14-18.86,20.24,18.95Zm2.25,2.45l23.11,70.97-43.76-49.34,20.65-21.63Zm-22.48-96.72l19.16,17.62h-38.32l19.16-17.62Zm-21.76,20.94h43.51v10.73h-43.51v-10.73Zm0,14.04h43.51v14.49h-43.51v-14.49Zm0,19.97l19.33,18.1-19.33,18.09v-36.19Zm-37.85-5.48l9.91-14.49h24.63v14.49h-34.54Zm37.17,47.13l19.8,21.74-42.38,49.18,22.58-70.92Zm-24.25,77.94l46.28-53.71,47.64,53.71h-93.92Zm136.84,0h-38.84l-26.24-80.6v-41.16h33.79c1.6,3.33,7.32,13.75,17.49,16.95,1.97.62,3.99.93,6.05.93,2.52,0,5.11-.48,7.75-1.42v105.3Zm61.84,0h-11.49v-103.09c1.86,1.09,4.03,1.96,6.53,2.28.7.09,1.4.13,2.1.13.95,0,1.9-.09,2.86-.25v100.93Zm91.58,0h-13.01v-88.34c2.85,7.2,7.05,14.76,13.01,19.07v69.27Zm153.05,0h-34.19v-51.06c3.85,4.11,9.32,8.37,16.6,10.52,2.47.72,5,1.15,7.59,1.3l-3.81,3.81h13.81v35.43Zm94.65,0h-37.99v-35.43h.7c3.98,5.24,9.97,11.06,18.12,13.71,2.94.95,5.95,1.42,9.04,1.42,3.29,0,6.67-.54,10.13-1.62v21.92Zm56.66,0v-17.21l14.19,17.21h-14.19Zm378.9,64.74c-16.65,17-66.78,26.89-102.65,24.43-17.94-1.22-35.42-8.85-53.49-11.31-32.54-4.43-70.79,2.24-99.82-4.51-48.59-11.29-25.21-23.89-39.91-42.12-9.94-12.35-36.16-22.93-57.61-29.8,14.59-.1,29.23-.17,43.9-.21-.03.02-.06.03-.09.04,25.65,2.11,28.24,27.5,48,38.67,17.95,10.14,38.98,4.82,57.37,1.19,11.57-2.29,25.89-4.51,37.6-2.11,12.92,2.63,23.31,9.39,37.28,9.6,26.97.39,48.37-19.91,74.49-23.71,13.38-1.95,47.68-.64,41.94-23.25,18.5-.03,36.94-.1,55.31-.22-55.8,8.23-22.97,43.55-42.32,63.31Zm227.53-64.74h-44.36c-.41-7.42-1.59-14.43-2.04-16.92,1.05.4,2.12.79,3.21,1.16,6.89,2.32,15.05,4.06,24.03,4.06,6.62,0,13.69-.95,21.03-3.3-.65,3.63-1.5,9.24-1.87,15Z"/>
      <path class="cls-1" d="m1505.84,292.33s0,0,0,0h0s0,.01,0,.01c0,0,0,0,0,0h0s0,0,.01,0c0,0,0,0,0,0,0,0,0,0,0,0h-.02Z"/>
    </g>
  </g>
</svg>